<svg id="Layer_1" xmlns="http://www.w3.org/2000/svg" viewBox="0 0 113.39 113.39">
    <defs>
        <style>
            .cls-college-1{fill:#ee8208;}.cls-college-2,.cls-college-3,.cls-4{fill:none;stroke:#ee8208;stroke-width:2px;}.cls-college-2{stroke-linejoin:round;}.cls-college-3{stroke-linecap:round;stroke-miterlimit:10;}
        </style>
    </defs>
    <path class="cls-college-1"
          d="M53.28,49.4,44.1,58.83l0,4.36H63.36v-5.3H52.56l5.18-5.18c2.81-2.84,4.9-5.69,4.9-8.42,0-4-3.71-6.66-8.82-6.66a17.78,17.78,0,0,0-10.44,3.81l2.48,4.86c2.34-2,4.94-3.2,7-3.2,1.83,0,2.88.79,2.88,2.16C55.73,46.34,54.68,48,53.28,49.4Z"/>
    <path class="cls-college-2" d="M71.25,72.41l2.38-8.88"/>
    <path class="cls-college-2" d="M78.07,68.47l2-7.42m4.72,3.55,1.33-4.95"/>
    <path class="cls-college-1" d="M74.59,85.07a1,1,0,1,0-1-1A1,1,0,0,0,74.59,85.07Z"/>
    <path class="cls-college-1" d="M65.09,78.17a1,1,0,1,0-1-1A1,1,0,0,0,65.09,78.17Z"/>
    <path class="cls-college-3" d="M73.39,88a7.69,7.69,0,1,1-8.3,12.2"/>
    <path class="cls-college-3" d="M66.89,95.27a7.7,7.7,0,0,1-15.4,0,7.3,7.3,0,0,1,1.2-4.1"/>
    <path class="cls-college-3" d="M90.38,56.59A39,39,0,1,0,49,88.06"/>
    <path class="cls-college-3" d="M58,91.37a6.72,6.72,0,0,1-2.4.4A7.76,7.76,0,0,1,49,88.06"/>
    <path class="cls-college-3"
          d="M57.49,76.57a12.25,12.25,0,0,0-1.9-.2,7.77,7.77,0,0,0-7.7,7.7,7.61,7.61,0,0,0,1.14,4"/>
    <line class="cls-4" x1="92.47" y1="60.16" x2="71.14" y2="72.48"/>
    <path class="cls-4" d="M64.52,69.5c4.82-10.63,17.27-13.07,25.86-12.91"/>
    <path class="cls-4" d="M90.38,56.59a30.76,30.76,0,0,1,6.85.82c-1.34,5-7.72,16.75-17.37,21.1"/>
    <path class="cls-4" d="M77.59,91.17a7.83,7.83,0,0,0,4.7-7.1,7.66,7.66,0,0,0-2.43-5.56"/>
    <path class="cls-4" d="M68.49,79.47a7.4,7.4,0,0,1,6.1-3.1,7.66,7.66,0,0,1,5.27,2.14"/>
    <path class="cls-4" d="M72.69,76.37a7.69,7.69,0,0,0-1.55-3.89"/>
    <path class="cls-4" d="M64.52,69.5a7.77,7.77,0,0,0-7.13,7.67,7.38,7.38,0,0,0,1.5,4.5"/>
    <path class="cls-4" d="M71.14,72.48a7.65,7.65,0,0,0-6-3c-.19,0-.38,0-.57,0"/>
    <path class="cls-college-3" d="M65.09,85.07v-4.5"/>
    <path class="cls-college-3" d="M63.09,86.47l-4.2-1.3"/>
    <path class="cls-college-3" d="M63.89,88.77l-2.8,3.9"/>
    <path class="cls-college-3" d="M67.49,86.37l3.7-1.2"/>
    <path class="cls-college-3" d="M66.29,88.77l2.6,3.7"/>
    <path class="cls-college-3" d="M65.09,89.27a2.1,2.1,0,1,0-2.1-2.1A2.1,2.1,0,0,0,65.09,89.27Z"/>
    <path class="cls-college-1" d="M55.59,85.07a1,1,0,1,0-1-1A1,1,0,0,0,55.59,85.07Z"/>
    <path class="cls-college-1" d="M59.19,96.27a1,1,0,1,0-1-1A1,1,0,0,0,59.19,96.27Z"/>
    <path class="cls-college-1" d="M71,96.27a1,1,0,1,0-1-1A1,1,0,0,0,71,96.27Z"/>
</svg>
