<svg xmlns="http://www.w3.org/2000/svg" viewBox="0 0 198.43 170.08">
    <defs>
        <style>
            .cls-1,.cls-2,.cls-3{fill:none;}.cls-2,.cls-3{stroke:#d89f5b;stroke-width:2px;}.cls-2{stroke-linejoin:round;}.cls-3{stroke-linecap:round;stroke-miterlimit:10;}
        </style>
    </defs>
    <path class="cls-1" d="M12.74,25.9C22.54,6,46.27,15.73,52.34,20.3,47.62,26.59,26.38,42.91,12.74,25.9Z"/>
    <path class="cls-2"
          d="M16.7,25.34l30.2-4.27M12.74,25.9C22.54,6,46.27,15.73,52.34,20.3,47.62,26.59,26.38,42.91,12.74,25.9Z"/>
    <path class="cls-2" d="M22.64,24.5l5.53-7.35"/>
    <path class="cls-2" d="M30.44,23.4l4.62-6.15m3,5.06,3.08-4.1"/>
    <path class="cls-1" d="M52.05,84.7C73.72,89.61,69.72,115,66.69,121.92,59.47,118.78,38.67,101.91,52.05,84.7Z"/>
    <path class="cls-2"
          d="M53.51,88.42,64.67,116.8M52.05,84.7C73.72,89.61,69.72,115,66.69,121.92,59.47,118.78,38.67,101.91,52.05,84.7Z"/>
    <path class="cls-2" d="M55.71,94l8.43,3.67"/>
    <path class="cls-2" d="M58.59,101.33l7,3.07m-4.21,4.15,4.7,2"/>
    <path class="cls-2" d="M107.1,49.44l8.73-2.9"/>
    <path class="cls-2" d="M114.14,53l7.3-2.42m-.38,5.9,4.87-1.61"/>
    <path class="cls-1"
          d="M103.42,65.07a7.71,7.71,0,0,0,2.2-10.67,13,13,0,0,0-1.21-1.48A7.72,7.72,0,0,0,96,40.06a8.44,8.44,0,0,0-.77-1.53,7.68,7.68,0,0,0-14,5.71,8,8,0,0,0-4.08,1.25,7.7,7.7,0,0,0-2.21,10.66,7.85,7.85,0,0,0,5.5,3.45,7.52,7.52,0,0,0,1,6.41,7.7,7.7,0,0,0,10.66,2.2A7.25,7.25,0,0,0,94.85,65,7.68,7.68,0,0,0,103.42,65.07Z"/>
    <path class="cls-1"
          d="M98.35,59.18a1,1,0,0,0,1.39.29,1,1,0,0,0,.28-1.39,1,1,0,0,0-1.38-.28A1,1,0,0,0,98.35,59.18Z"/>
    <path class="cls-1" d="M98.9,47.45a1,1,0,0,0,1.38.29,1,1,0,0,0,.29-1.39,1,1,0,0,0-1.39-.28A1,1,0,0,0,98.9,47.45Z"/>
    <path class="cls-3" d="M95.27,59.77a7.69,7.69,0,1,1-14.75-.23"/>
    <path class="cls-3" d="M85.6,58.35a7.7,7.7,0,1,1-8.46-12.86,7.23,7.23,0,0,1,4.08-1.25"/>
    <path class="cls-3" d="M84,48.77A6.66,6.66,0,0,1,82.31,47a7.7,7.7,0,1,1,12.87-8.46,10.14,10.14,0,0,1,.72,1.35"/>
    <line class="cls-3" x1="106.98" y1="49.38" x2="128.99" y2="60.43"/>
    <path class="cls-3" d="M105.83,42.22c15.36-2.42,26,14.46,28.08,20.68C129,64.53,115.66,65.66,106.73,60"/>
    <path class="cls-3" d="M99.68,51a7.41,7.41,0,0,1,5.94,3.39A7.65,7.65,0,0,1,106.73,60"/>
    <path class="cls-3" d="M106.73,60a7.66,7.66,0,0,1-3.31,5.07,7.83,7.83,0,0,1-8.52,0"/>
    <path class="cls-3" d="M104.58,52.81a7.66,7.66,0,0,0,2.4-3.43"/>
    <path class="cls-3" d="M105.83,42.22c.12.15.23.29.34.45a7.67,7.67,0,0,1,.81,6.71"/>
    <path class="cls-3" d="M105.83,42.22A7.78,7.78,0,0,0,95.5,40.47a7.33,7.33,0,0,0-2.93,3.73"/>
    <path class="cls-3" d="M93.13,51.24l3.76-2.47"/>
    <path class="cls-3" d="M90.81,50.15l-1.17-4"/>
    <path class="cls-3" d="M89,52.26l-4.46-.18"/>
    <path class="cls-3" d="M93.36,54l3,2.44"/>
    <path class="cls-3" d="M90.56,54.63,89,58.48"/>
    <path class="cls-3" d="M89.62,53.55a2.1,2.1,0,1,0,.6-2.91A2.1,2.1,0,0,0,89.62,53.55Z"/>
    <path class="cls-1"
          d="M87.91,43.31a1,1,0,0,0,1.39.28,1,1,0,0,0,.28-1.38,1,1,0,0,0-1.38-.29A1,1,0,0,0,87.91,43.31Z"/>
    <path class="cls-1"
          d="M80.53,52.47a1,1,0,0,0,1.39.28,1,1,0,0,0,.28-1.38,1,1,0,0,0-1.38-.29A1,1,0,0,0,80.53,52.47Z"/>
    <path class="cls-1" d="M87,62.33a1,1,0,0,0,1.38.28,1,1,0,0,0,.29-1.38,1,1,0,0,0-1.39-.29A1,1,0,0,0,87,62.33Z"/>
    <path class="cls-1" d="M153,135c6.65-21.21,31.59-15.17,38.29-11.58C187.55,130.39,169.06,149.77,153,135Z"/>
    <path class="cls-2" d="M162.55,132.14l4.34-8.1"/>
    <path class="cls-2" d="M170.09,129.86l3.63-6.77m3.79,4.53,2.42-4.52"/>
    <line class="cls-2" x1="159.9" y1="132.94" x2="186" y2="125.05"/>
    <path class="cls-2" d="M154.15,132c8-17.55,30.76-12,37.12-8.55C188.69,128.27,179,139.05,168,140.3"/>
    <path class="cls-2"
          d="M154.15,132l-.76-.15c-4-.93-16.16-8.2-20.24,9.23-2.21,9.45,4,18,13.45,20.2s18.71-2.71,20.92-12.15a19.9,19.9,0,0,0,.43-8.84"/>
    <path class="cls-2" d="M154.15,132c1.51.25,3.62.41,5.75.93"/>
    <path class="cls-2" d="M159.9,132.94c3.47.85,7,2.66,8,7.36"/>
    <path class="cls-3" d="M146.79,135c2.27,2.59,8.39,4.53,11.39,2.67"/>
    <path class="cls-3" d="M140,135.51c-3.61,3.57-4.19,9.08-3.1,13.24"/>
    <path class="cls-3" d="M140.82,141.24c-1.17,3.22-1.14,6.62.62,9.19"/>
    <path class="cls-3" d="M138.78,152.16c.3.48.69,1,1,1.47"/>
    <path class="cls-3" d="M152.93,125.9c1.81,4.12.83,8.31-.49,12.21"/>
</svg>
