<svg id="Layer_1" xmlns="http://www.w3.org/2000/svg" viewBox="0 0 113.39 113.39"><defs><style>.cls-1,.cls-2,.cls-3,.cls-4{fill:none;stroke:#d89f5b;stroke-miterlimit:10;}.cls-2{stroke-dasharray:3.09 3.09;}.cls-3{stroke-dasharray:3.08 3.08;}.cls-4{stroke-dasharray:2.58 2.58;}</style></defs><path class="cls-1" d="M54.69,32.94a9.3,9.3,0,1,0-9.3-9.3A9.3,9.3,0,0,0,54.69,32.94Z"/><path class="cls-1" d="M10.49,82.44v-1.5"/><path class="cls-2" d="M10.59,77.84c.3-7,1.8-17.9,8-19.8,4.1-1.3,8.3,1.4,9.7,6.5"/><path class="cls-1" d="M28.59,66c.1.5.1,1,.2,1.5V66"/><path class="cls-3" d="M28.79,62.94c.3-7,1.8-17.7,8-19.6,4.1-1.3,8.3,1.4,9.7,6.5"/><path class="cls-1" d="M46.79,51.44c.1.5.1,1,.2,1.5v-1.5"/><path class="cls-4" d="M47,48.84c.2-4.1.7-9.6,2.4-13.9"/><path class="cls-1" d="M49.89,33.64a5.39,5.39,0,0,1,.7-1.3"/><path class="cls-1" d="M52.69,42.14l33.4,12.5"/><path class="cls-1" d="M52.69,56.94l33.4,12.5"/><path class="cls-1" d="M37.89,56.94l33.4,12.5"/><path class="cls-1" d="M37.89,71.74l33.4,12.5"/><path class="cls-1" d="M23.09,71.74l33.4,12.5"/><path class="cls-1" d="M100.89,54.64V99H56.49l-33.4-12.4V71.74h14.8V56.94h14.8V42.14h14.8l33.13,12.4a.05.05,0,0,1,0,.1H86.09v14.8H71.29v14.8H56.49V99"/></svg>
