<svg id="Layer_1"  xmlns="http://www.w3.org/2000/svg" viewBox="0 0 113.39 113.39"><defs><style>.cls-1{fill:none;stroke:#d89f5b;stroke-miterlimit:10;}</style></defs><path class="cls-1" d="M50,85.74v-7"/><path class="cls-1" d="M34,78.74v7"/><path class="cls-1" d="M26.79,90.24v-1.7a2.8,2.8,0,0,1,2.8-2.8h24.7a2.8,2.8,0,0,1,2.8,2.8v1.7Z"/><polyline class="cls-1" points="61.49 70.64 6.79 70.64 6.79 29.14 77.19 29.14 77.19 33.24"/><path class="cls-1" d="M81.09,35.24v-7.3a2.8,2.8,0,0,0-2.8-2.8H5.59a2.8,2.8,0,0,0-2.8,2.8v48a2.8,2.8,0,0,0,2.8,2.8h58.9"/><path class="cls-1" d="M98.79,44.54V38a2.8,2.8,0,0,0-2.8-2.8H67.29a2.8,2.8,0,0,0-2.8,2.8v49.4a2.86,2.86,0,0,0,2.8,2.8H96a2.8,2.8,0,0,0,2.8-2.8V85"/><path class="cls-1" d="M64.49,40.34h34.4"/><path class="cls-1" d="M64.49,81.64H87.34"/><path class="cls-1" d="M79.49,85.74h3.9"/><path class="cls-1" d="M90.39,82.24V49.34a2.8,2.8,0,0,1,2.8-2.8h14.5a2.8,2.8,0,0,1,2.8,2.8v32.9a2.8,2.8,0,0,1-2.8,2.8H93.19A2.73,2.73,0,0,1,90.39,82.24Z"/><path class="cls-1" d="M90.39,50.24h20.2"/><path class="cls-1" d="M90.39,78.74h20.2"/><path class="cls-1" d="M99.39,81.64h2.2"/></svg>
