<svg width="86" height="94" viewBox="0 0 86 94" fill="none" xmlns="http://www.w3.org/2000/svg">
<path d="M38.6001 2.6499V37.6103" stroke="#D89F5B" stroke-width="4.0121" stroke-miterlimit="10"/>
<path d="M38.5999 23.0269C32.2999 23.0269 24.4999 25.8237 24.4999 33.7148C24.4999 41.6058 27.8999 45.6013 27.8999 49.1972C27.8999 55.9895 18.3999 59.086 18.3999 73.7694" stroke="#D89F5B" stroke-width="4.0121" stroke-miterlimit="10"/>
<path d="M47.6001 2.6499V37.6103" stroke="#D89F5B" stroke-width="4.0121" stroke-miterlimit="10"/>
<path d="M47.6001 23.0269C53.9001 23.0269 61.7001 25.8237 61.7001 33.7148C61.7001 41.6058 58.3001 45.6013 58.3001 49.1972C58.3001 55.9895 67.8001 59.086 67.8001 73.7694" stroke="#D89F5B" stroke-width="4.0121" stroke-miterlimit="10"/>
<path d="M41.8999 52.3936C47.0999 53.1927 51.5999 48.7976 50.7999 43.5036C50.2999 40.2074 47.5999 37.6103 44.3999 37.1109C39.1999 36.3118 34.6999 40.7068 35.4999 46.0008C35.9999 49.1972 38.6999 51.8941 41.8999 52.3936Z" stroke="#D89F5B" stroke-width="4.0121" stroke-miterlimit="10"/>
<path d="M43.1 2.6499H81.2C82.3 2.6499 83.2 3.54888 83.2 4.64764V60.3846C83.2 61.6831 82.6 62.8817 81.6 63.5809L45.5 90.2507C44.1 91.2496 42.2 91.2496 40.7 90.2507L4.6 63.6808C3.6 62.8817 3 61.6831 3 60.4844V4.64764C3 3.54888 3.9 2.6499 5 2.6499H43.1Z" stroke="#D89F5B" stroke-width="4.0121" stroke-miterlimit="10"/>
</svg>
