<svg id="keys" width="86" height="94" viewBox="0 0 86 94" fill="none" xmlns="http://www.w3.org/2000/svg">
<path d="M43.1 3H81.2C82.3 3 83.2 3.9 83.2 5V60.8C83.2 62.1 82.6 63.3 81.6 64L45.5 90.6C44.1 91.6 42.2 91.6 40.7 90.6L4.6 64C3.6 63.2 3 62 3 60.8V5C3 3.9 3.9 3 5 3H43.1Z" stroke="#D89F5B" stroke-width="4.0121" stroke-miterlimit="10"/>
<path d="M17.1 28.2H11.8C11.1 28.2 10.5 27.6001 10.5 26.9001V4.30005H18.5V26.8C18.5 27.6 17.9 28.2 17.1 28.2Z" fill="#D89F5B"/>
<path d="M14.3999 28.2V51.9" stroke="#D89F5B" stroke-width="2.0061" stroke-miterlimit="10"/>
<path d="M28.4999 28.2H23.1999C22.4999 28.2 21.8999 27.6001 21.8999 26.9001V4.30005H29.8999V26.8C29.7999 27.6 29.1999 28.2 28.4999 28.2Z" fill="#D89F5B"/>
<path d="M25.8 28.2V51.9" stroke="#D89F5B" stroke-width="2.0061" stroke-miterlimit="10"/>
<path d="M37.3 4.30005V51.9001" stroke="#D89F5B" stroke-width="2.0061" stroke-miterlimit="10"/>
<path d="M83.2 51.8999H3" stroke="#D89F5B" stroke-width="2.0061" stroke-miterlimit="10"/>
<path d="M51.3 28.2H46C45.3 28.2 44.7 27.6001 44.7 26.9001V4.30005H52.7V26.8C52.6 27.6 52 28.2 51.3 28.2Z" fill="#D89F5B"/>
<path d="M48.6001 28.2V51.9" stroke="#D89F5B" stroke-width="2.0061" stroke-miterlimit="10"/>
<path d="M62.8 28.2H57.5C56.8 28.2 56.2 27.6001 56.2 26.9001V4.30005H64.2V26.8C64.1 27.6 63.5 28.2 62.8 28.2Z" fill="#D89F5B"/>
<path d="M60.1001 28.2V51.9" stroke="#D89F5B" stroke-width="2.0061" stroke-miterlimit="10"/>
<path d="M74.3999 28.2H69C68.3 28.2 67.7 27.6001 67.7 26.9001V4.30005H75.7V26.8C75.7 27.6 75.0999 28.2 74.3999 28.2Z" fill="#D89F5B"/>
<path d="M71.7 28.2V51.9" stroke="#D89F5B" stroke-width="2.0061" stroke-miterlimit="10"/>
</svg>
