<svg id="Layer_1" xmlns="http://www.w3.org/2000/svg" viewBox="0 0 113.39 113.39"><defs><style>.cls-school-1{fill:#2d9cdb;}.cls-school-2,.cls-school-3{fill:none;stroke:#2d9cdb;stroke-width:2px;}.cls-school-3{stroke-linejoin:round;}</style></defs><path class="cls-school-1" d="M48.74,38v5.4H53.6V63.19h6.59V38Z"/><path class="cls-school-2" d="M93.24,57.1a39.59,39.59,0,0,0,.8-7.91A39,39,0,1,0,79.16,79.82"/><line class="cls-school-2" x1="102.67" y1="60.16" x2="89.26" y2="67.9"/><line class="cls-school-2" x1="89.26" y1="67.9" x2="76.25" y2="75.41"/><path class="cls-school-2" d="M93.24,57.1C83.9,58.61,73.8,63.77,72.79,77.41a21.57,21.57,0,0,0,6.37,2.41"/><path class="cls-school-2" d="M93.24,57.1a37.66,37.66,0,0,1,14.19.31c-1.8,6.72-12.64,25.52-28.27,22.41"/><path class="cls-school-3" d="M81.45,72.41l2.38-8.88"/><path class="cls-school-3" d="M88.27,68.47l2-7.42M95,64.6l1.33-4.95"/></svg>
