<svg id="Layer_1" xmlns="http://www.w3.org/2000/svg" viewBox="0 0 170.08 113.39"><defs><style>.cls-1{fill:none;stroke:#d89f5b;stroke-miterlimit:10;stroke-width:2px;}.cls-2{fill:#d89f5b;}</style></defs><path class="cls-1" d="M43.85,68.08h-20a10,10,0,0,1-10-10v-20a10,10,0,0,1,10-10h20a10,10,0,0,1,10,10v20A10,10,0,0,1,43.85,68.08Z"/><path class="cls-1" d="M93.85,68.08h-20a10,10,0,0,1-10-10v-20a10,10,0,0,1,10-10h20a10,10,0,0,1,10,10v20A10,10,0,0,1,93.85,68.08Z"/><path class="cls-1" d="M143.85,68.08h-20a10,10,0,0,1-10-10v-20a10,10,0,0,1,10-10h20a10,10,0,0,1,10,10v20A10,10,0,0,1,143.85,68.08Z"/><path class="cls-2" d="M109.05,68.78l-27.6-21.3,4.6,34.6,6.3-6.8,10.2,17.5,7.6-4.4L100,70.88Z"/></svg>
