<svg id="Layer_1" xmlns="http://www.w3.org/2000/svg" viewBox="0 0 170.08 113.39"><defs><style>.cls-1{fill:none;stroke:#d89f5b;stroke-miterlimit:10;stroke-width:2px;}.cls-2{fill:#d89f5b;}</style></defs><path class="cls-1" d="M36.2,33.68h98"/><path class="cls-1" d="M36.2,43.68h98"/><path class="cls-1" d="M36.2,53.68h98"/><path class="cls-1" d="M36.2,63.68h98"/><path class="cls-1" d="M36.2,73.68h98"/><path class="cls-1" d="M63.2,50.68v42"/><path class="cls-2" d="M73.09,53.7c4.12-2.37,6.15-6.55,4.55-9.32s-6.23-3.1-10.35-.72S61.14,50.2,62.75,53,69,56.08,73.09,53.7Z"/><path class="cls-1" d="M101.2,39.68v42"/><path class="cls-2" d="M111.09,42.7c4.12-2.37,6.15-6.55,4.55-9.32s-6.23-3.1-10.35-.72S99.14,39.2,100.75,42,107,45.08,111.09,42.7Z"/></svg>
